#!OML:ASF E:/inclinewalkrobotboard/Project1/Captureday1/Session1/subject1.ASF
:FULLY-SPECIFIED
:DEGREES
63
root 0 0 0 1.5347335708857335 -3.857265041272244 1.8571176585536238
lowerback 12.241432123660168 0.9566201811577051 0.0202540240411353
upperback -4.4482151423734955 1.2104446717109774 -0.6309480501436234
thorax -11.738799555552905 0.5598211995345094 -0.9336943181703325
lowerneck -6.062762617244185 1.867158542825463 4.776891263950799
upperneck 18.112638516327955 3.5006987512143892 -8.589400980015487
head 6.648317457026774 1.3084342443573682 -3.281588639875948
rclavicle 2.159531848891011E-15 -6.986905618444607E-16
rhumerus 21.069923039057763 15.602870144233185 -47.792188823412346
rradius 73.26149099951579
rwrist 26.711149893650923
rhand -34.61429732277825 -57.18233002110384
rfingers 7.1250200000000286
rthumb -7.716161509750723 -87.14224465919983
lclavicle -7.373212509122464E-16 -7.255339880495897E-16
lhumerus 23.175984533467847 -14.462421838552435 44.74560862785334
lradius 71.83520679811265
lwrist -22.2507731548718
lhand -45.75539110688452 -71.95643122525513
lfingers 7.1250200000000286
lthumb -18.509360716268386 -42.73950670824739
rfemur -25.085384282429185 -1.9829058909781976 17.71952010882605
rtibia 50.859131741650984
rfoot -34.12354980422448 -18.31231914823983
rtoes -21.712445589486343
lfemur -28.04380941545272 2.1988189266571223 -17.2022503960294
ltibia 51.11595403078611
lfoot -35.46347401066828 -0.3612117195705613
ltoes -22.00048021097369
64
root 0 0 0 1.537166742732548 -3.8623278172132243 1.8541730907969742
lowerback 12.241727512457931 0.957919217130327 0.023017818415107194
upperback -4.4475403116724825 1.212516700595415 -0.6305351677319243
thorax -11.738080304194147 0.5607694101830667 -0.9350655259124698
lowerneck -6.064363414804467 1.8668332634181326 4.7752848169389335
upperneck 18.10879234220948 3.5002179978231673 -8.58727447572552
head 6.6473329835111565 1.3082935386314305 -3.2806606951658255
rclavicle 2.167729068399713E-15 -6.985623369280884E-16
rhumerus 21.08595334924845 15.624459939693365 -47.806155453273874
rradius 73.27417870277131
rwrist 26.69577105904643
rhand -34.614650369565155 -57.18127283276268
rfingers 7.1250200000000286
rthumb -7.716988688833602 -87.14143368251192
lclavicle -7.345017860207221E-16 -7.443508409781159E-16
lhumerus 23.179968477800536 -14.467724865293679 44.74717425398353
lradius 71.83844327057977
lwrist -22.247781393232636
lhand -45.75615559891252 -71.95342130758428
lfingers 7.1250200000000286
lthumb -18.51025392359119 -42.736499677169505
rfemur -25.055919755266803 -1.9606999879549516 17.756141968274356
rtibia 50.713302952104705
rfoot -34.232307263489034 -18.318287201883997
rtoes -21.7747047248978
lfemur -28.081062042384847 2.173196805319761 -17.190990095992614
ltibia 50.96764923513453
lfoot -35.578939930093924 -0.2763865157654384
ltoes -22.02660208901395
65
root 0 0 0 1.539183541437291 -3.8658659578872507 1.8525638539538591
lowerback 12.24081954947203 0.9592813487109757 0.024374469253754805
upperback -4.447017836596648 1.2144322439707025 -0.6305385987152797
thorax -11.736829017124325 0.561680538424728 -0.9360470069449522
lowerneck -6.066072319794116 1.8663846630157146 4.774121754595529
upperneck 18.107508711746824 3.4994810102879788 -8.585561581026779
head 6.6471894325025085 1.3080084218589962 -3.2799700921190507
rclavicle 2.1713429409057474E-15 -6.974620745606526E-16
rhumerus 21.094936609818014 15.637097160874314 -47.81489951918578
rradius 73.28173763076633
rwrist 26.686325159196258
rhand -34.61482659982615 -57.17879748952869
rfingers 7.1250200000000286
rthumb -7.717209009721083 -87.13978976989861
lclavicle -7.342518782611655E-16 -7.447836414462376E-16
lhumerus 23.179130583530693 -14.46788985670625 44.74797446500176
lradius 71.83811309019131
lwrist -22.2468458319402
lhand -45.75553438754001 -71.95035074019758
lfingers 7.1250200000000286
lthumb -18.509658872195015 -42.733460484999156
rfemur -25.02273676968828 -1.9406994149925918 17.785805120915725
rtibia 50.58998473145505
rfoot -34.31402270097411 -18.319553054614666
rtoes -21.83159994792301
lfemur -28.09339352034739 2.1507047465662197 -17.174286661946745
ltibia 50.848676478112964
lfoot -35.63206982775309 -0.2288577752058214
ltoes -22.064558940976035
66
root 0 0 0 1.540564071682133 -3.868052413901456 1.8513977362388352
lowerback 12.239891095131334 0.9603006440223409 0.025304192468060205
upperback -4.446654498497707 1.215841627692042 -0.6305397122118571
thorax -11.735767376803441 0.5623532267630623 -0.9367265997511498
lowerneck -6.067434877321064 1.8660976862409207 4.77348584839071
upperneck 18.107556699761602 3.498999098758632 -8.584659408704944
head 6.647418412357227 1.3077987989994497 -3.279614401802011
rclavicle 2.1711489309858075E-15 -6.984439698345739E-16
rhumerus 21.097773521101274 15.64092669789301 -47.817383206608966
rradius 73.28421209905
rwrist 26.6836656637135
rhand -34.61501851976313 -57.178281582799876
rfingers 7.1250200000000286
rthumb -7.7173993073572 -87.1396679067612
lclavicle -7.349959610197096E-16 -7.453189917384917E-16
lhumerus 23.177064060406074 -14.46545516214419 44.74792531500046
lradius 71.83604563977974
lwrist -22.24752467140965
lhand -45.75479876593293 -71.94937104328767
lfingers 7.1250200000000286
lthumb -18.508924012477454 -42.73251789108163
rfemur -24.990722369864756 -1.9283472291582635 17.805470604104862
rtibia 50.51505267262723
rfoot -34.36130385601864 -18.31444673862778
rtoes -21.87741260132858
lfemur -28.095122653909712 2.1340201130604086 -17.1563147983681
ltibia 50.77961512221915
lfoot -35.63816556210916 -0.21524390260927184
ltoes -22.10254465177986
67
root 0 0 0 1.5416476362043752 -3.871453889924574 1.8503952256133558
lowerback 12.237911050330135 0.9623777928585087 0.026335869742491358
upperback -4.446349581573182 1.2185434201500789 -0.6310461228849246
thorax -11.73410711520525 0.5636732834496316 -0.9380835946463766
lowerneck -6.069246478515376 1.8656119848924446 4.772895091999835
upperneck 18.110272745542954 3.498096082211794 -8.58374773918093
head 6.6485640993074835 1.3073770662195465 -3.2793072961064516
rclavicle 2.17039563320076E-15 -7.0164393235286835E-16
rhumerus 21.094282053070366 15.637311742558945 -47.81610823559512
rradius 73.28210469787783
rwrist 26.685469078816958
rhand -34.614753642214495 -57.17564664705901
rfingers 7.1250200000000286
rthumb -7.716710810484811 -87.13781204709412
lclavicle -7.355463427726011E-16 -7.2891104120110685E-16
lhumerus 23.16758850968501 -14.453774976373124 44.74640700628852
lradius 71.82726818578658
lwrist -22.25235239235333
lhand -45.75203207525976 -71.9494613329217
lfingers 7.1250200000000286
lthumb -18.506066621533574 -42.73281333181363
rfemur -24.95491961799165 -1.9249038112438122 17.811280522324488
rtibia 50.50422434110591
rfoot -34.36030389494198 -18.302883139244116
rtoes -21.904479436958454
lfemur -28.088558292630793 2.1257769955339985 -17.13461505927165
ltibia 50.767332642068986
lfoot -35.574242332467165 -0.2400267376102465
ltoes -22.12704508001515
68
root 0 0 0 1.5413941834821263 -3.8705024117154903 1.8501885922133168
lowerback 12.238534517034287 0.9618334288622283 0.026547773037918942
upperback -4.446404014422257 1.2178957248703761 -0.6307708297348106
thorax -11.734560903095268 0.5633450509067902 -0.9378596313751437
lowerneck -6.0689761211004365 1.8658935392396334 4.773304087946139
upperneck 18.110330393809274 3.498608678148897 -8.58456535906488
head 6.6485456541053365 1.3075711627534683 -3.279601787165789
rclavicle 2.165479524327745E-15 -7.0482968129618575E-16
rhumerus 21.091784191832566 15.632385546210697 -47.81132187742563
rradius 73.27943083061913
rwrist 26.690127817146063
rhand -34.61519655074554 -57.17977896262241
rfingers 7.1250200000000286
rthumb -7.717533065988679 -87.1411535455855
lclavicle -7.376861299125453E-16 -7.46250832611816E-16
lhumerus 23.16879053836911 -14.452872717778023 44.74551891940616
lradius 71.82683398755788
lwrist -22.25359417865492
lhand -45.75300474493639 -71.9530971797595
lfingers 7.1250200000000286
lthumb -18.507098703656197 -42.73652055281076
rfemur -24.94249266271745 -1.9334976972184545 17.805370465852295
rtibia 50.54969329486064
rfoot -34.335196657366716 -18.288640152575923
rtoes -21.917748843555923
lfemur -28.08741224724491 2.124786310135439 -17.13054986812508
ltibia 50.79169299274125
lfoot -35.550673014836775 -0.26142102877216544
ltoes -22.137046991583247
69
root 0 0 0 1.540837941841076 -3.8698634107886676 1.850485955484638
lowerback 12.238738759121775 0.9616291238852775 0.026393762179427738
upperback -4.446528775723459 1.2176055948294378 -0.6308177957657274
thorax -11.73485618403907 0.5632086610959315 -0.9377832948990141
lowerneck -6.068584157385999 1.865995288884392 4.773608632634832
upperneck 18.11073850531158 3.4987780695751995 -8.585023225562448
head 6.648610068405392 1.307634012624062 -3.279786842199697
rclavicle 2.1593392213744338E-15 -7.093235613113531E-16
rhumerus 21.088421549000415 15.627455332319434 -47.807611832021536
rradius 73.2767033932946
rwrist 26.693980326663343
rhand -34.615294346726174 -57.18087213307897
rfingers 7.1250200000000286
rthumb -7.717623478235387 -87.14223780327414
lclavicle -7.418203526905755E-16 -7.490648886316565E-16
lhumerus 23.167058779083014 -14.44986889924383 44.744660061532976
lradius 71.8249466012027
lwrist -22.255341180420288
lhand -45.75290862947293 -71.95531293721554
lfingers 7.1250200000000286
lthumb -18.506975998726976 -42.73878108215517
rfemur -24.94097157029249 -1.9421034817804754 17.794286948287073
rtibia 50.60245222952718
rfoot -34.29880566884793 -18.280473297993815
rtoes -21.912144868689246
lfemur -28.082179917507972 2.1307470502680186 -17.13183373594165
ltibia 50.83330948423554
lfoot -35.515688583717285 -0.28614229570769023
ltoes -22.128685780831525
70
root 0 0 0 1.5402143760322935 -3.8691611555239236 1.8508241424679177
lowerback 12.239071839771253 0.9613373146058715 0.026193730402592097
upperback -4.446672039992826 1.2172042370779435 -0.630836819533901
thorax -11.735254110507636 0.5630176435834666 -0.9376408370623577
lowerneck -6.068063243317213 1.8661168830840469 4.773905476326466
upperneck 18.11095739240098 3.498978960331635 -8.585474934546374
head 6.648594659717448 1.3077137761957744 -3.2799654909082347
rclavicle 2.1551958223593504E-15 -7.134678205712065E-16
rhumerus 21.08540558074791 15.623080367805438 -47.80434300322443
rradius 73.27422102621738
rwrist 26.69747770576181
rhand -34.61530755487921 -57.18204119532806
rfingers 7.1250200000000286
rthumb -7.717617949144795 -87.14321900905313
lclavicle -7.44132854025618E-16 -7.519034078047013E-16
lhumerus 23.166348656701935 -14.448249518801314 44.74408323489824
lradius 71.82396976821508
lwrist -22.25643311355806
lhand -45.75293877246414 -71.95702692865633
lfingers 7.1250200000000286
lthumb -18.506984089352965 -42.74048226841916
rfemur -24.947573083598456 -1.9502121596061848 17.782843338184016
rtibia 50.65225558064065
rfoot -34.264990996634054 -18.276894080825542
rtoes -21.89785613581891
lfemur -28.079577221461033 2.138381119380762 -17.13709087478298
ltibia 50.875202429684826
lfoot -35.49423942042902 -0.30389710620999066
ltoes -22.114202818209847
